<?xml version="1.0" encoding="utf-8"?>
<!-- Generator: Adobe Illustrator 21.1.0, SVG Export Plug-In . SVG Version: 6.00 Build 0)  -->
<svg version="1.1" id="Layer_1" xmlns="http://www.w3.org/2000/svg" xmlns:xlink="http://www.w3.org/1999/xlink" x="0px" y="0px"
	 viewBox="0 0 291 126" style="enable-background:new 0 0 291 126;" xml:space="preserve">
<style type="text/css">
	.st0{fill:#26B6D2;}
	.st1{fill:#5066AD;}
	.st2{fill:none;}
	.st3{fill:none;stroke:#5067AD;stroke-width:10;stroke-linecap:round;stroke-linejoin:round;stroke-miterlimit:10;}
	.st4{fill:#FFFFFF;}
	.st5{fill-rule:evenodd;clip-rule:evenodd;fill:#D56327;}
	.st6{fill-rule:evenodd;clip-rule:evenodd;}
	.st7{fill:#594A42;}
</style>
<polygon class="st5" points="98.4,77.3 83,78.8 79.6,93.9 73.5,79.7 58.1,81.2 69.7,70.9 63.6,56.8 76.9,64.6 88.5,54.4 85.1,69.5 
	"/>
<path class="st5" d="M70.3,86.2c-4.1,0.4-28.7,2.8-28.7,2.8l21.7-19.1C61.6,66,51.8,43.4,51.8,43.4S73,55.9,76.6,58l11.6-10.2
	L20.6,7.9l25,58L29.5,80.1c-9.9,8.7-2.9,25,10.3,23.8l36.7-3.4C73.8,94.4,71.1,88,70.3,86.2L70.3,86.2z"/>
<g>
	<path class="st7" d="M94.9,108.7c-2,0-5.4-0.6-7.3-1.2l1.7-4.6c1.7,0.6,3.8,1.5,5.7,1.5c3,0,4.8-0.3,4.8-2.5
		c0-4.5-12.2-3-12.2-11.3c0-4.7,5-6.6,9.3-6.6c1.6,0,4.6,0.4,6.5,1l-1.7,4.6c-1.3-0.6-2.7-1.4-4.9-1.4c-3.4,0-3.7,1.7-3.7,2.3
		c0,3.8,12.2,2.2,12.2,11.2C105.2,107.7,100.3,108.7,94.9,108.7z"/>
	<path class="st7" d="M108.8,88.5v-3.9h5.1v3.9H108.8z M108.9,107.9V91.5h4.9v16.5H108.9z"/>
	<path class="st7" d="M137.9,107.9V97.5c0-2.4-0.7-2.8-1.7-2.8c-1.9,0-3,1.8-3.6,3.5v9.8h-4.9V97.5c0-2.6-0.5-2.8-2-2.8
		c-1.5,0-2.7,2.4-3.2,3.2v10h-4.9V95.3c0-1.4-0.4-2.6-0.5-3.8h4.6l0.7,2.1c0.5-0.7,2.4-2.6,4.3-2.6c2.8,0,3.6,0.4,5.3,2.3
		c0.9-1.5,2.7-2.3,5-2.3c4,0,5.8,2.1,5.8,6.5v10.5H137.9z"/>
	<path class="st7" d="M155.7,108.5c-1.3,0-3.2-0.7-4.2-2v8h-4.9V96.6c0-2.2-0.2-3.1-0.5-5.1h4.6l0.8,2c0.7-0.9,1.9-2.6,4-2.6
		c5.2,0,7.2,4.1,7.2,8.9C162.6,104.4,160.4,108.5,155.7,108.5z M154.1,94.7c-1.1,0-1.9,1.7-2.7,3.2v4.1c0.9,1.8,2.2,2.7,3.3,2.7
		c1.5,0,2.9-0.7,2.9-5C157.5,95.3,156.1,94.7,154.1,94.7z"/>
	<path class="st7" d="M165.5,107.9V84.3h4.9v23.6H165.5z"/>
	<path class="st7" d="M183.2,110.6c-1.1,2.9-3,5.5-6.9,6.8l-1.7-4c2-0.5,2.8-1.4,3.2-2.3l1.4-3.8L173,91.5h5.3l3.4,10.2l3.6-10.2
		h5.2L183.2,110.6z"/>
	<path class="st7" d="M204,108.7c-8.2,0-11.2-4.9-11.2-12.3c0-6.5,2.7-12.2,11.3-12.2c2,0,4.6,0.4,6.4,1l-1.7,4.6
		c-1.5-0.6-3-1.3-4.8-1.3c-4,0-5.7,2.5-5.7,7.9c0,5.7,1.5,8.2,5.5,8.2c2,0,3.3-0.8,5.2-1.5l1.7,4.6
		C208.8,108.2,206.9,108.7,204,108.7z"/>
	<path class="st7" d="M223.7,107.9V97c0-1-0.1-2.3-2-2.3c-1.4,0-2.3,1.6-3.3,3.3v10h-4.9V84.3h4.9v9.2c0.5-0.5,1.8-2.6,4.1-2.6
		c5,0,6.1,2.8,6.1,6.7v10.3H223.7z"/>
	<path class="st7" d="M236.5,101.8c0.4,2.2,1.9,3,3.6,3c1.4,0,3.3-0.5,5.1-1.4l1.6,3.7c-2,0.9-4.6,1.3-7,1.3c-5.5,0-8.4-4-8.4-8.6
		c0-3.8,1.8-8.9,8.2-8.9c6.3,0,8.3,3.3,8.3,10.8H236.5z M239.5,94.8c-0.7,0-2.9,0.2-3,3.4h6.3C242.6,95.4,241.2,94.8,239.5,94.8z"/>
	<path class="st7" d="M255.1,101.8c0.4,2.2,1.9,3,3.6,3c1.4,0,3.3-0.5,5.1-1.4l1.6,3.7c-2,0.9-4.6,1.3-7,1.3c-5.5,0-8.4-4-8.4-8.6
		c0-3.8,1.8-8.9,8.2-8.9c6.3,0,8.3,3.3,8.3,10.8H255.1z M258.1,94.8c-0.7,0-2.9,0.2-3,3.4h6.3C261.2,95.4,259.7,94.8,258.1,94.8z"/>
	<path class="st7" d="M279.3,95.4c-0.6-0.5-1.2-0.7-2.1-0.7c-1.8,0-2.6,2.6-3,3.5v9.8h-4.9V95.2c0-1.6-0.4-2.8-0.5-3.7h4.6l0.7,2.3
		c0.6-1,1.9-2.8,3.6-2.8c1.4,0,2.5,0.2,3.2,0.4L279.3,95.4z"/>
</g>
</svg>
