<svg xmlns="http://www.w3.org/2000/svg" width="32px" height="32px" viewBox="0 0 138 138"><path d="M68.412.013a13.53 13.53 0 0 0-5.397 1.397l.01-.015L18.584 23.31a13.648 13.648 0 0 0-7.275 9.276L.329 81.843c-.89 3.995.048 8.18 2.556 11.404l30.75 39.506a13.562 13.562 0 0 0 10.698 5.241l49.321.006c4.178 0 8.124-1.932 10.7-5.239l30.758-39.498a13.716 13.716 0 0 0 2.56-11.404L126.702 32.6a13.648 13.648 0 0 0-7.273-9.277L74.994 1.397A13.527 13.527 0 0 0 68.412.013z" fill="#fff"/><path d="M68.632 5.053a8.533 8.533 0 0 0-3.403.879l.006-.008L20.794 27.84a8.607 8.607 0 0 0-4.587 5.85L5.225 82.946a8.65 8.65 0 0 0 1.613 7.193l30.749 39.506a8.553 8.553 0 0 0 6.746 3.305l49.323.006a8.553 8.553 0 0 0 6.747-3.305l30.758-39.496a8.65 8.65 0 0 0 1.613-7.193l-10.97-49.259a8.607 8.607 0 0 0-4.585-5.85L72.784 5.926a8.53 8.53 0 0 0-4.152-.873z" fill="#336ee5"/><path d="M69.003 21.742c-1.457 0-2.636 1.346-2.655 3.013h-.004c.001.24-.01.587-.002.819.036.972.24 1.718.364 2.614.224 1.917.413 3.506.297 4.983-.105.74-.52 1.032-.865 1.374l.066.044h-.07v.004l-.066 1.194c-8.468.773-16.32 4.758-22.093 10.982l-.993-.727-.045.057.008-.084c-.475.065-.953.22-1.578-.157-1.19-.827-2.275-1.97-3.588-3.347-.6-.658-1.035-1.288-1.75-1.923-.155-.138-.39-.321-.569-.467l-.021-.02c-1.276-1.05-3.055-.94-3.971.245-.908 1.176-.624 2.966.624 4.021l-.002.004c.183.15.439.378.62.516.757.578 1.451.876 2.206 1.335 1.59 1.014 2.91 1.852 3.957 2.866.494.546.456 1.063.5 1.556l.074-.026-.043.057.882.815a36.023 36.023 0 0 0-5.014 11.915 36.507 36.507 0 0 0-.54 12.854l-1.033.307.016.066-.057-.055c-.246.425-.43.908-1.104 1.179-1.368.444-2.91.61-4.77.81-.872.076-1.622.032-2.547.214-.209.04-.503.12-.727.173l-.01.002c-.004.001-.006.004-.01.004l-.027.006v.002c-1.57.39-2.577 1.878-2.253 3.345.325 1.468 1.857 2.356 3.435 2.005v.002l.039-.007.011-.004c.225-.052.523-.112.727-.168.91-.252 1.567-.624 2.385-.948 1.76-.652 3.218-1.195 4.637-1.407.722-.06 1.09.293 1.49.565l.027-.077.015.07 1.061-.185c2.562 8.252 7.997 15.398 15.386 19.87l-.443 1.105.064.03-.082.012c.168.463.42.91.204 1.624-.516 1.383-1.354 2.73-2.361 4.358-.487.752-.986 1.33-1.427 2.19-.097.19-.217.468-.315.682l-.011.022-.01.025-.006.014h.002c-.682 1.51-.184 3.25 1.127 3.904 1.324.658 2.97-.04 3.68-1.558l.01-.025c.1-.212.237-.483.32-.678.377-.893.503-1.657.768-2.519.604-1.827 1.102-3.342 1.827-4.62.406-.62.901-.696 1.357-.849l-.043-.072.064.03.577-1.076a33.93 33.93 0 0 0 4.508 1.403c6.906 1.62 13.806.966 19.976-1.465l.634 1.184.062-.031-.04.07c.455.153.95.23 1.356.85.724 1.278 1.223 2.793 1.827 4.621.265.862.39 1.628.768 2.519.082.196.218.464.318.676l.01.025c.708 1.52 2.356 2.218 3.68 1.56 1.313-.652 1.811-2.394 1.129-3.904l.002-.002-.016-.036c0-.002-.003-.004-.004-.006-.099-.215-.224-.505-.322-.7-.44-.86-.94-1.438-1.427-2.19-1.007-1.626-1.845-2.975-2.362-4.357-.215-.713.036-1.16.205-1.624l-.08-.012.064-.03-.502-1.255c7.099-4.323 12.701-11.21 15.38-19.716l1.138.2.015-.07.027.077c.4-.272.768-.626 1.489-.567 1.42.212 2.877.755 4.638 1.407.817.324 1.474.698 2.384.95.205.056.507.118.731.17l.008.002.008.002.03.006v-.002c1.577.353 3.11-.537 3.436-2.005.324-1.466-.684-2.955-2.253-3.345v-.002l-.037-.01-.01-.002c-.225-.054-.52-.133-.727-.174-.926-.18-1.675-.14-2.548-.215-1.86-.202-3.401-.366-4.77-.81-.674-.271-.856-.752-1.102-1.177l-.058.056.016-.068-1.08-.322a36.363 36.363 0 0 0-5.436-24.814l.83-.768-.042-.055.075.025c.044-.492.004-1.01.498-1.555 1.046-1.014 2.367-1.852 3.957-2.867.756-.458 1.449-.757 2.206-1.334.168-.127.392-.326.57-.475.007-.005.014-.008.021-.014 1.276-1.05 1.568-2.865.651-4.05-.907-1.177-2.662-1.29-3.936-.268l-.002-.002c-.183.151-.451.357-.622.51-.714.634-1.15 1.266-1.75 1.925-1.312 1.375-2.399 2.518-3.589 3.345-.625.376-1.103.222-1.578.156l.008.08-.043-.054-.904.662c-4.524-4.939-10.466-8.602-17.383-10.223a33.66 33.66 0 0 0-4.82-.76l-.065-1.179v-.004h-.07l.066-.045c-.345-.341-.759-.634-.865-1.373-.115-1.477.072-3.066.296-4.983.123-.896.33-1.642.365-2.614.009-.232-.002-.578-.002-.82h-.004c-.02-1.666-1.197-3.011-2.655-3.012zm3.328 21.23c.936.118 1.875.284 2.814.504 5.194 1.218 9.706 3.885 13.23 7.498l-11.45 8.379-.023-.012a2.287 2.287 0 0 1-1.382.463c-1.261 0-2.287-1.028-2.34-2.317l-.056-.028-.793-14.487zm-6.657.008l-.795 14.454-.012.006a2.46 2.46 0 0 1-.51 1.405 2.295 2.295 0 0 1-3.216.445l-.04.02-11.386-8.338c4.29-4.379 9.898-7.22 15.959-7.992zm-20.1 13.397l10.386 9.596-.006.027c.362.325.63.768.744 1.288.28 1.27-.463 2.532-1.667 2.872l-.012.053-13.4 3.992a29.587 29.587 0 0 1 .574-9.244 29.341 29.341 0 0 1 3.382-8.584zm46.926.004c3.067 5.209 4.521 11.446 3.839 17.873L83.01 70.28l-.01-.047a2.333 2.333 0 0 1-1.213-.827c-.785-1.018-.647-2.49.296-3.337l-.012-.057L92.5 56.381zM66.914 66.686h4.18l2.673 3.445-.966 4.356-3.796 1.88-3.796-1.879-.966-4.357 2.67-3.445zm-9.666 11.822c.362-.01.732.066 1.08.24.123.06.233.135.34.213v.123l.312.155c.65.684.868 1.724.484 2.647l.018.024-5.37 13.404c-5.153-3.41-9.013-8.504-11.039-14.387l13.792-2.411.026.031c.118-.022.237-.036.357-.04zm23.444.057c.151-.003.304.011.457.04l.021-.027 13.66 2.392c-2.115 6.06-6.047 10.992-10.989 14.286l-5.31-13.264.039-.05a2.482 2.482 0 0 1-.13-1.496c.245-1.111 1.196-1.867 2.252-1.881zm-11.82 5.82a2.33 2.33 0 0 1 2.203 1.277v-.006h.006l6.756 12.613a26.56 26.56 0 0 1-14.993.817 27.11 27.11 0 0 1-2.725-.792l6.772-12.636h.052a2.369 2.369 0 0 1 1.05-1.036c.284-.141.582-.219.878-.236z" fill="#fff"/></svg>