<?xml version="1.0" encoding="utf-8"?>
<svg width="32px" height="32px" id="Layer_1" data-name="Layer 1" xmlns="http://www.w3.org/2000/svg" viewBox="0 0 144 144">
	<defs>
		<style>.cls-1{fill:#717073;}.cls-2{fill:#fff;}</style>
	</defs>
	<rect class="cls-1" width="144" height="144" rx="7.2" ry="7.2"/>
	<path class="cls-2" d="M238.68,267.54a6,6,0,0,0-8-3,5.84,5.84,0,0,0-2.92,8l13.39,29.1c2.1,4.56,4.33,7,8.49,7,4.45,0,6.39-2.61,8.49-7L269.94,276a1.69,1.69,0,0,1,1.68-1.09,1.87,1.87,0,0,1,1.85,1.88v24.87c0,3.83,2.13,7,6.22,7s6.3-3.15,6.3-7V281.28c0-3.93,2.81-6.47,6.64-6.47a6.09,6.09,0,0,1,6.38,6.47v20.35c0,3.83,2.14,7,6.22,7s6.31-3.15,6.31-7V281.28c0-3.93,2.8-6.47,6.64-6.47a6.1,6.1,0,0,1,6.39,6.47v20.35c0,3.83,2.13,7,6.22,7s6.3-3.15,6.3-7V278.47C337.07,270,330.23,264,322,264a19.34,19.34,0,0,0-13.38,5.69c-2.74-3.55-6.51-5.69-12.9-5.69-6.74,0-12.64,5.69-12.64,5.69A15.13,15.13,0,0,0,271.81,264c-6,0-10.72,2.63-13.61,9.25l-8.55,20.16Z" transform="translate(-210.12 -213.3)"/>
</svg>